<svg width="136" height="136" viewBox="0 0 136 136" fill="none" xmlns="http://www.w3.org/2000/svg">
<g clip-path="url(#clip0)">
<rect x="-6" y="-14" width="192" height="164" fill="#CADAE1"/>
<circle cx="113.725" cy="-0.319346" r="5" transform="rotate(-135.429 113.725 -0.319346)" fill="#EDEDED" fill-opacity="0.92"/>
<circle cx="113.001" cy="12.1418" r="5" transform="rotate(-90 113.001 12.1418)" fill="#F3F3F3" fill-opacity="0.49"/>
<circle cx="91.2952" cy="1.84659" r="5" transform="rotate(107.908 91.2952 1.84659)" fill="#F3F3F3" fill-opacity="0.49"/>
<circle cx="83.2952" cy="1.84659" r="5" transform="rotate(107.908 83.2952 1.84659)" fill="#F3F3F3" fill-opacity="0.49"/>
<circle cx="108.071" cy="-3.92909" r="5" transform="rotate(-135.429 108.071 -3.92909)" fill="#F3F3F3" fill-opacity="0.49"/>
<circle cx="101" cy="15.1418" r="5" transform="rotate(-90 101 15.1418)" fill="#F3F3F3" fill-opacity="0.49"/>
<circle cx="110.237" cy="6.07092" r="5" transform="rotate(-135.429 110.237 6.07092)" fill="#F3F3F3" fill-opacity="0.49"/>
<circle cx="86.7449" cy="7.39738" r="5" transform="rotate(62.4792 86.7449 7.39738)" fill="#EDEDED" fill-opacity="0.92"/>
<circle cx="81.7446" cy="9.39739" r="5" transform="rotate(62.4792 81.7446 9.39739)" fill="#F3F3F3" fill-opacity="0.49"/>
<path d="M107 10.5001C109.761 10.5001 112 12.7387 112 15.5001C112 18.2615 109.761 20.5001 107 20.5001C104.239 20.5001 102 18.2615 102 15.5001C102 12.7387 104.239 10.5001 107 10.5001Z" fill="#F3F3F3" fill-opacity="0.49"/>
<circle cx="118.122" cy="5.46805" r="5" transform="rotate(107.908 118.122 5.46805)" fill="#F3F3F3" fill-opacity="0.49"/>
<circle cx="106.654" cy="-0.266427" r="5" transform="rotate(-135.429 106.654 -0.266427)" fill="#F3F3F3" fill-opacity="0.49"/>
<circle cx="94.5717" cy="8.91741" r="5" transform="rotate(62.4792 94.5717 8.91741)" fill="#F3F3F3" fill-opacity="0.49"/>
<circle cx="98.8272" cy="5.17285" r="5" transform="rotate(-88.3254 98.8272 5.17285)" fill="#F3F3F3" fill-opacity="0.49"/>
<circle cx="106" cy="10.1418" r="5" transform="rotate(-90 106 10.1418)" fill="#EDEDED" fill-opacity="0.92"/>
<path d="M92 19C89.3723 18.1509 87.9305 15.3325 88.7797 12.7048C89.6288 10.0772 92.4472 8.63541 95.0749 9.48451C97.7025 10.3336 99.1443 13.1521 98.2952 15.7797C97.4461 18.4074 94.6276 19.8491 92 19Z" fill="#EDEDED" fill-opacity="0.92"/>
<circle cx="100.071" cy="-2.92909" r="5" transform="rotate(-135.429 100.071 -2.92909)" fill="#EDEDED" fill-opacity="0.92"/>
<g opacity="0.8">
<circle cx="133.725" cy="9.68065" r="5" transform="rotate(-135.429 133.725 9.68065)" fill="#EDEDED" fill-opacity="0.92"/>
<circle cx="133.001" cy="22.1418" r="5" transform="rotate(-90 133.001 22.1418)" fill="#F3F3F3" fill-opacity="0.49"/>
<circle cx="111.295" cy="11.8466" r="5" transform="rotate(107.908 111.295 11.8466)" fill="#F3F3F3" fill-opacity="0.49"/>
<circle cx="103.295" cy="11.8466" r="5" transform="rotate(107.908 103.295 11.8466)" fill="#F3F3F3" fill-opacity="0.49"/>
<circle cx="128.071" cy="6.07091" r="5" transform="rotate(-135.429 128.071 6.07091)" fill="#F3F3F3" fill-opacity="0.49"/>
<circle cx="121" cy="25.1418" r="5" transform="rotate(-90 121 25.1418)" fill="#F3F3F3" fill-opacity="0.49"/>
<circle cx="130.237" cy="16.0709" r="5" transform="rotate(-135.429 130.237 16.0709)" fill="#F3F3F3" fill-opacity="0.49"/>
<circle cx="106.745" cy="17.3974" r="5" transform="rotate(62.4792 106.745 17.3974)" fill="#EDEDED" fill-opacity="0.92"/>
<circle cx="101.745" cy="19.3974" r="5" transform="rotate(62.4792 101.745 19.3974)" fill="#F3F3F3" fill-opacity="0.49"/>
<path d="M127 20.5001C129.761 20.5001 132 22.7387 132 25.5001C132 28.2615 129.761 30.5001 127 30.5001C124.239 30.5001 122 28.2615 122 25.5001C122 22.7387 124.239 20.5001 127 20.5001Z" fill="#F3F3F3" fill-opacity="0.49"/>
<circle cx="138.122" cy="15.4681" r="5" transform="rotate(107.908 138.122 15.4681)" fill="#F3F3F3" fill-opacity="0.49"/>
<circle cx="126.654" cy="9.73357" r="5" transform="rotate(-135.429 126.654 9.73357)" fill="#F3F3F3" fill-opacity="0.49"/>
<circle cx="114.572" cy="18.9174" r="5" transform="rotate(62.4792 114.572 18.9174)" fill="#F3F3F3" fill-opacity="0.49"/>
<circle cx="118.827" cy="15.1728" r="5" transform="rotate(-88.3254 118.827 15.1728)" fill="#F3F3F3" fill-opacity="0.49"/>
<circle cx="126" cy="20.1418" r="5" transform="rotate(-90 126 20.1418)" fill="#EDEDED" fill-opacity="0.92"/>
<path d="M112 29C109.372 28.1509 107.931 25.3325 108.78 22.7048C109.629 20.0772 112.447 18.6354 115.075 19.4845C117.702 20.3336 119.144 23.1521 118.295 25.7797C117.446 28.4074 114.628 29.8491 112 29Z" fill="#EDEDED" fill-opacity="0.92"/>
<circle cx="120.071" cy="7.07091" r="5" transform="rotate(-135.429 120.071 7.07091)" fill="#EDEDED" fill-opacity="0.92"/>
</g>
<g opacity="0.3">
<circle cx="76.7253" cy="3.68065" r="5" transform="rotate(-135.429 76.7253 3.68065)" fill="#EDEDED" fill-opacity="0.92"/>
<circle cx="76.0005" cy="16.1418" r="5" transform="rotate(-90 76.0005 16.1418)" fill="#F3F3F3" fill-opacity="0.49"/>
<circle cx="54.2952" cy="5.84659" r="5" transform="rotate(107.908 54.2952 5.84659)" fill="#F3F3F3" fill-opacity="0.49"/>
<circle cx="46.2952" cy="5.84659" r="5" transform="rotate(107.908 46.2952 5.84659)" fill="#F3F3F3" fill-opacity="0.49"/>
<circle cx="71.0713" cy="0.070911" r="5" transform="rotate(-135.429 71.0713 0.070911)" fill="#F3F3F3" fill-opacity="0.49"/>
<circle cx="64.0004" cy="19.1418" r="5" transform="rotate(-90 64.0004 19.1418)" fill="#F3F3F3" fill-opacity="0.49"/>
<circle cx="73.2375" cy="10.0709" r="5" transform="rotate(-135.429 73.2375 10.0709)" fill="#F3F3F3" fill-opacity="0.49"/>
<circle cx="49.7449" cy="11.3974" r="5" transform="rotate(62.4792 49.7449 11.3974)" fill="#EDEDED" fill-opacity="0.92"/>
<circle cx="44.7446" cy="13.3974" r="5" transform="rotate(62.4792 44.7446 13.3974)" fill="#F3F3F3" fill-opacity="0.49"/>
<path d="M70 14.5001C72.7614 14.5001 75 16.7387 75 19.5001C75 22.2615 72.7614 24.5001 70 24.5001C67.2385 24.5001 65 22.2615 65 19.5001C65 16.7387 67.2385 14.5001 70 14.5001Z" fill="#F3F3F3" fill-opacity="0.49"/>
<circle cx="81.1224" cy="9.46805" r="5" transform="rotate(107.908 81.1224 9.46805)" fill="#F3F3F3" fill-opacity="0.49"/>
<circle cx="69.6545" cy="3.73357" r="5" transform="rotate(-135.429 69.6545 3.73357)" fill="#F3F3F3" fill-opacity="0.49"/>
<circle cx="57.5717" cy="12.9174" r="5" transform="rotate(62.4792 57.5717 12.9174)" fill="#F3F3F3" fill-opacity="0.49"/>
<circle cx="61.8272" cy="9.17284" r="5" transform="rotate(-88.3254 61.8272 9.17284)" fill="#F3F3F3" fill-opacity="0.49"/>
<circle cx="69" cy="14.1418" r="5" transform="rotate(-90 69 14.1418)" fill="#EDEDED" fill-opacity="0.92"/>
<path d="M55 23C52.3723 22.1509 50.9305 19.3325 51.7797 16.7048C52.6288 14.0772 55.4472 12.6354 58.0749 13.4845C60.7025 14.3336 62.1443 17.1521 61.2952 19.7797C60.4461 22.4074 57.6276 23.8491 55 23Z" fill="#EDEDED" fill-opacity="0.92"/>
<circle cx="63.0714" cy="1.07091" r="5" transform="rotate(-135.429 63.0714 1.07091)" fill="#EDEDED" fill-opacity="0.92"/>
</g>
<g opacity="0.3">
<circle cx="98.7253" cy="15.6807" r="5" transform="rotate(-135.429 98.7253 15.6807)" fill="#EDEDED" fill-opacity="0.92"/>
<circle cx="98.0005" cy="28.1418" r="5" transform="rotate(-90 98.0005 28.1418)" fill="#F3F3F3" fill-opacity="0.49"/>
<circle cx="76.2952" cy="17.8466" r="5" transform="rotate(107.908 76.2952 17.8466)" fill="#F3F3F3" fill-opacity="0.49"/>
<circle cx="68.2952" cy="17.8466" r="5" transform="rotate(107.908 68.2952 17.8466)" fill="#F3F3F3" fill-opacity="0.49"/>
<circle cx="93.0713" cy="12.0709" r="5" transform="rotate(-135.429 93.0713 12.0709)" fill="#F3F3F3" fill-opacity="0.49"/>
<circle cx="86.0004" cy="31.1418" r="5" transform="rotate(-90 86.0004 31.1418)" fill="#F3F3F3" fill-opacity="0.49"/>
<circle cx="95.2375" cy="22.0709" r="5" transform="rotate(-135.429 95.2375 22.0709)" fill="#F3F3F3" fill-opacity="0.49"/>
<circle cx="71.7449" cy="23.3974" r="5" transform="rotate(62.4792 71.7449 23.3974)" fill="#EDEDED" fill-opacity="0.92"/>
<circle cx="66.7446" cy="25.3974" r="5" transform="rotate(62.4792 66.7446 25.3974)" fill="#F3F3F3" fill-opacity="0.49"/>
<path d="M92 26.5001C94.7614 26.5001 97 28.7387 97 31.5001C97 34.2615 94.7614 36.5001 92 36.5001C89.2386 36.5001 87 34.2615 87 31.5001C87 28.7387 89.2386 26.5001 92 26.5001Z" fill="#F3F3F3" fill-opacity="0.49"/>
<circle cx="103.122" cy="21.4681" r="5" transform="rotate(107.908 103.122 21.4681)" fill="#F3F3F3" fill-opacity="0.49"/>
<circle cx="91.6545" cy="15.7336" r="5" transform="rotate(-135.429 91.6545 15.7336)" fill="#F3F3F3" fill-opacity="0.49"/>
<circle cx="79.5717" cy="24.9174" r="5" transform="rotate(62.4792 79.5717 24.9174)" fill="#F3F3F3" fill-opacity="0.49"/>
<circle cx="83.8272" cy="21.1728" r="5" transform="rotate(-88.3254 83.8272 21.1728)" fill="#F3F3F3" fill-opacity="0.49"/>
<circle cx="91" cy="26.1418" r="5" transform="rotate(-90 91 26.1418)" fill="#EDEDED" fill-opacity="0.92"/>
<path d="M77 35C74.3723 34.1509 72.9305 31.3325 73.7797 28.7048C74.6288 26.0772 77.4472 24.6354 80.0749 25.4845C82.7025 26.3336 84.1443 29.1521 83.2952 31.7797C82.4461 34.4074 79.6276 35.8491 77 35Z" fill="#EDEDED" fill-opacity="0.92"/>
<circle cx="85.0714" cy="13.0709" r="5" transform="rotate(-135.429 85.0714 13.0709)" fill="#EDEDED" fill-opacity="0.92"/>
</g>
<g opacity="0.3">
<circle cx="41.7253" cy="-2.31935" r="5" transform="rotate(-135.429 41.7253 -2.31935)" fill="#EDEDED" fill-opacity="0.92"/>
<circle cx="41.0005" cy="10.1418" r="5" transform="rotate(-90 41.0005 10.1418)" fill="#F3F3F3" fill-opacity="0.49"/>
<circle cx="19.2952" cy="-0.153411" r="5" transform="rotate(107.908 19.2952 -0.153411)" fill="#F3F3F3" fill-opacity="0.49"/>
<circle cx="11.2952" cy="-0.153411" r="5" transform="rotate(107.908 11.2952 -0.153411)" fill="#F3F3F3" fill-opacity="0.49"/>
<circle cx="36.0713" cy="-5.92909" r="5" transform="rotate(-135.429 36.0713 -5.92909)" fill="#F3F3F3" fill-opacity="0.49"/>
<circle cx="29.0004" cy="13.1418" r="5" transform="rotate(-90 29.0004 13.1418)" fill="#F3F3F3" fill-opacity="0.49"/>
<circle cx="38.2375" cy="4.07092" r="5" transform="rotate(-135.429 38.2375 4.07092)" fill="#F3F3F3" fill-opacity="0.49"/>
<circle cx="14.7449" cy="5.39738" r="5" transform="rotate(62.4792 14.7449 5.39738)" fill="#EDEDED" fill-opacity="0.92"/>
<circle cx="9.74458" cy="7.39739" r="5" transform="rotate(62.4792 9.74458 7.39739)" fill="#F3F3F3" fill-opacity="0.49"/>
<path d="M35 8.50008C37.7614 8.50008 40 10.7387 40 13.5001C40 16.2615 37.7614 18.5001 35 18.5001C32.2385 18.5001 30 16.2615 30 13.5001C30 10.7387 32.2385 8.50008 35 8.50008Z" fill="#F3F3F3" fill-opacity="0.49"/>
<circle cx="46.1224" cy="3.46805" r="5" transform="rotate(107.908 46.1224 3.46805)" fill="#F3F3F3" fill-opacity="0.49"/>
<circle cx="34.6545" cy="-2.26643" r="5" transform="rotate(-135.429 34.6545 -2.26643)" fill="#F3F3F3" fill-opacity="0.49"/>
<circle cx="22.5717" cy="6.91741" r="5" transform="rotate(62.4792 22.5717 6.91741)" fill="#F3F3F3" fill-opacity="0.49"/>
<circle cx="26.8272" cy="3.17285" r="5" transform="rotate(-88.3254 26.8272 3.17285)" fill="#F3F3F3" fill-opacity="0.49"/>
<circle cx="34" cy="8.14177" r="5" transform="rotate(-90 34 8.14177)" fill="#EDEDED" fill-opacity="0.92"/>
<path d="M20 17C17.3723 16.1509 15.9305 13.3325 16.7797 10.7048C17.6288 8.07719 20.4472 6.63541 23.0749 7.48451C25.7025 8.33362 27.1443 11.1521 26.2952 13.7797C25.4461 16.4074 22.6276 17.8491 20 17Z" fill="#EDEDED" fill-opacity="0.92"/>
<circle cx="28.0714" cy="-4.92909" r="5" transform="rotate(-135.429 28.0714 -4.92909)" fill="#EDEDED" fill-opacity="0.92"/>
</g>
<g opacity="0.3">
<circle cx="86.7253" cy="1.68065" r="5" transform="rotate(-135.429 86.7253 1.68065)" fill="#EDEDED" fill-opacity="0.92"/>
<circle cx="86.0005" cy="14.1418" r="5" transform="rotate(-90 86.0005 14.1418)" fill="#F3F3F3" fill-opacity="0.49"/>
<circle cx="64.2952" cy="3.84659" r="5" transform="rotate(107.908 64.2952 3.84659)" fill="#F3F3F3" fill-opacity="0.49"/>
<circle cx="56.2952" cy="3.84659" r="5" transform="rotate(107.908 56.2952 3.84659)" fill="#F3F3F3" fill-opacity="0.49"/>
<circle cx="81.0713" cy="-1.92909" r="5" transform="rotate(-135.429 81.0713 -1.92909)" fill="#F3F3F3" fill-opacity="0.49"/>
<circle cx="74.0004" cy="17.1418" r="5" transform="rotate(-90 74.0004 17.1418)" fill="#F3F3F3" fill-opacity="0.49"/>
<circle cx="83.2375" cy="8.07092" r="5" transform="rotate(-135.429 83.2375 8.07092)" fill="#F3F3F3" fill-opacity="0.49"/>
<circle cx="59.7449" cy="9.39738" r="5" transform="rotate(62.4792 59.7449 9.39738)" fill="#EDEDED" fill-opacity="0.92"/>
<circle cx="54.7446" cy="11.3974" r="5" transform="rotate(62.4792 54.7446 11.3974)" fill="#F3F3F3" fill-opacity="0.49"/>
<path d="M80 12.5001C82.7614 12.5001 85 14.7387 85 17.5001C85 20.2615 82.7614 22.5001 80 22.5001C77.2385 22.5001 75 20.2615 75 17.5001C75 14.7387 77.2385 12.5001 80 12.5001Z" fill="#F3F3F3" fill-opacity="0.49"/>
<circle cx="91.1224" cy="7.46805" r="5" transform="rotate(107.908 91.1224 7.46805)" fill="#F3F3F3" fill-opacity="0.49"/>
<circle cx="79.6545" cy="1.73357" r="5" transform="rotate(-135.429 79.6545 1.73357)" fill="#F3F3F3" fill-opacity="0.49"/>
<circle cx="67.5717" cy="10.9174" r="5" transform="rotate(62.4792 67.5717 10.9174)" fill="#F3F3F3" fill-opacity="0.49"/>
<circle cx="71.8272" cy="7.17285" r="5" transform="rotate(-88.3254 71.8272 7.17285)" fill="#F3F3F3" fill-opacity="0.49"/>
<circle cx="79" cy="12.1418" r="5" transform="rotate(-90 79 12.1418)" fill="#EDEDED" fill-opacity="0.92"/>
<path d="M65 21C62.3723 20.1509 60.9305 17.3325 61.7797 14.7048C62.6288 12.0772 65.4472 10.6354 68.0749 11.4845C70.7025 12.3336 72.1443 15.1521 71.2952 17.7797C70.4461 20.4074 67.6276 21.8491 65 21Z" fill="#EDEDED" fill-opacity="0.92"/>
<circle cx="73.0714" cy="-0.929088" r="5" transform="rotate(-135.429 73.0714 -0.929088)" fill="#EDEDED" fill-opacity="0.92"/>
</g>
<g opacity="0.3">
<circle cx="102.725" cy="17.6807" r="5" transform="rotate(-135.429 102.725 17.6807)" fill="#EDEDED" fill-opacity="0.92"/>
<circle cx="102.001" cy="30.1418" r="5" transform="rotate(-90 102.001 30.1418)" fill="#F3F3F3" fill-opacity="0.49"/>
<circle cx="80.2952" cy="19.8466" r="5" transform="rotate(107.908 80.2952 19.8466)" fill="#F3F3F3" fill-opacity="0.49"/>
<circle cx="72.2952" cy="19.8466" r="5" transform="rotate(107.908 72.2952 19.8466)" fill="#F3F3F3" fill-opacity="0.49"/>
<circle cx="97.0713" cy="14.0709" r="5" transform="rotate(-135.429 97.0713 14.0709)" fill="#F3F3F3" fill-opacity="0.49"/>
<circle cx="90.0004" cy="33.1418" r="5" transform="rotate(-90 90.0004 33.1418)" fill="#F3F3F3" fill-opacity="0.49"/>
<circle cx="99.2375" cy="24.0709" r="5" transform="rotate(-135.429 99.2375 24.0709)" fill="#F3F3F3" fill-opacity="0.49"/>
<circle cx="75.7449" cy="25.3974" r="5" transform="rotate(62.4792 75.7449 25.3974)" fill="#EDEDED" fill-opacity="0.92"/>
<circle cx="70.7446" cy="27.3974" r="5" transform="rotate(62.4792 70.7446 27.3974)" fill="#F3F3F3" fill-opacity="0.49"/>
<path d="M96 28.5001C98.7614 28.5001 101 30.7387 101 33.5001C101 36.2615 98.7614 38.5001 96 38.5001C93.2386 38.5001 91 36.2615 91 33.5001C91 30.7387 93.2386 28.5001 96 28.5001Z" fill="#F3F3F3" fill-opacity="0.49"/>
<circle cx="107.122" cy="23.4681" r="5" transform="rotate(107.908 107.122 23.4681)" fill="#F3F3F3" fill-opacity="0.49"/>
<circle cx="95.6545" cy="17.7336" r="5" transform="rotate(-135.429 95.6545 17.7336)" fill="#F3F3F3" fill-opacity="0.49"/>
<circle cx="83.5717" cy="26.9174" r="5" transform="rotate(62.4792 83.5717 26.9174)" fill="#F3F3F3" fill-opacity="0.49"/>
<circle cx="87.8272" cy="23.1728" r="5" transform="rotate(-88.3254 87.8272 23.1728)" fill="#F3F3F3" fill-opacity="0.49"/>
<circle cx="95" cy="28.1418" r="5" transform="rotate(-90 95 28.1418)" fill="#EDEDED" fill-opacity="0.92"/>
<path d="M81 37C78.3723 36.1509 76.9305 33.3325 77.7797 30.7048C78.6288 28.0772 81.4472 26.6354 84.0749 27.4845C86.7025 28.3336 88.1443 31.1521 87.2952 33.7797C86.4461 36.4074 83.6276 37.8491 81 37Z" fill="#EDEDED" fill-opacity="0.92"/>
<circle cx="89.0714" cy="15.0709" r="5" transform="rotate(-135.429 89.0714 15.0709)" fill="#EDEDED" fill-opacity="0.92"/>
</g>
<g opacity="0.3">
<circle cx="83.7253" cy="21.6807" r="5" transform="rotate(-135.429 83.7253 21.6807)" fill="#EDEDED" fill-opacity="0.92"/>
<circle cx="83.0005" cy="34.1418" r="5" transform="rotate(-90 83.0005 34.1418)" fill="#F3F3F3" fill-opacity="0.49"/>
<circle cx="61.2952" cy="23.8466" r="5" transform="rotate(107.908 61.2952 23.8466)" fill="#F3F3F3" fill-opacity="0.49"/>
<circle cx="53.2952" cy="23.8466" r="5" transform="rotate(107.908 53.2952 23.8466)" fill="#F3F3F3" fill-opacity="0.49"/>
<circle cx="78.0713" cy="18.0709" r="5" transform="rotate(-135.429 78.0713 18.0709)" fill="#F3F3F3" fill-opacity="0.49"/>
<circle cx="71.0004" cy="37.1418" r="5" transform="rotate(-90 71.0004 37.1418)" fill="#F3F3F3" fill-opacity="0.49"/>
<circle cx="80.2375" cy="28.0709" r="5" transform="rotate(-135.429 80.2375 28.0709)" fill="#F3F3F3" fill-opacity="0.49"/>
<circle cx="56.7449" cy="29.3974" r="5" transform="rotate(62.4792 56.7449 29.3974)" fill="#EDEDED" fill-opacity="0.92"/>
<circle cx="51.7446" cy="31.3974" r="5" transform="rotate(62.4792 51.7446 31.3974)" fill="#F3F3F3" fill-opacity="0.49"/>
<path d="M77 32.5001C79.7614 32.5001 82 34.7387 82 37.5001C82 40.2615 79.7614 42.5001 77 42.5001C74.2385 42.5001 72 40.2615 72 37.5001C72 34.7387 74.2385 32.5001 77 32.5001Z" fill="#F3F3F3" fill-opacity="0.49"/>
<circle cx="88.1224" cy="27.468" r="5" transform="rotate(107.908 88.1224 27.468)" fill="#F3F3F3" fill-opacity="0.49"/>
<circle cx="76.6545" cy="21.7336" r="5" transform="rotate(-135.429 76.6545 21.7336)" fill="#F3F3F3" fill-opacity="0.49"/>
<circle cx="64.5717" cy="30.9174" r="5" transform="rotate(62.4792 64.5717 30.9174)" fill="#F3F3F3" fill-opacity="0.49"/>
<circle cx="68.8272" cy="27.1728" r="5" transform="rotate(-88.3254 68.8272 27.1728)" fill="#F3F3F3" fill-opacity="0.49"/>
<circle cx="76" cy="32.1418" r="5" transform="rotate(-90 76 32.1418)" fill="#EDEDED" fill-opacity="0.92"/>
<path d="M62 41C59.3723 40.1509 57.9305 37.3325 58.7797 34.7048C59.6288 32.0772 62.4472 30.6354 65.0749 31.4845C67.7025 32.3336 69.1443 35.1521 68.2952 37.7797C67.4461 40.4074 64.6276 41.8491 62 41Z" fill="#EDEDED" fill-opacity="0.92"/>
<circle cx="70.0714" cy="19.0709" r="5" transform="rotate(-135.429 70.0714 19.0709)" fill="#EDEDED" fill-opacity="0.92"/>
</g>
<g opacity="0.3">
<circle cx="139.725" cy="29.6807" r="5" transform="rotate(-135.429 139.725 29.6807)" fill="#EDEDED" fill-opacity="0.92"/>
<circle cx="139.001" cy="42.1418" r="5" transform="rotate(-90 139.001 42.1418)" fill="#F3F3F3" fill-opacity="0.49"/>
<circle cx="117.295" cy="31.8466" r="5" transform="rotate(107.908 117.295 31.8466)" fill="#F3F3F3" fill-opacity="0.49"/>
<circle cx="109.295" cy="31.8466" r="5" transform="rotate(107.908 109.295 31.8466)" fill="#F3F3F3" fill-opacity="0.49"/>
<circle cx="134.071" cy="26.0709" r="5" transform="rotate(-135.429 134.071 26.0709)" fill="#F3F3F3" fill-opacity="0.49"/>
<circle cx="127" cy="45.1418" r="5" transform="rotate(-90 127 45.1418)" fill="#F3F3F3" fill-opacity="0.49"/>
<circle cx="136.237" cy="36.0709" r="5" transform="rotate(-135.429 136.237 36.0709)" fill="#F3F3F3" fill-opacity="0.49"/>
<circle cx="112.745" cy="37.3974" r="5" transform="rotate(62.4792 112.745 37.3974)" fill="#EDEDED" fill-opacity="0.92"/>
<circle cx="107.745" cy="39.3974" r="5" transform="rotate(62.4792 107.745 39.3974)" fill="#F3F3F3" fill-opacity="0.49"/>
<path d="M133 40.5001C135.761 40.5001 138 42.7387 138 45.5001C138 48.2615 135.761 50.5001 133 50.5001C130.239 50.5001 128 48.2615 128 45.5001C128 42.7387 130.239 40.5001 133 40.5001Z" fill="#F3F3F3" fill-opacity="0.49"/>
<circle cx="132.654" cy="29.7336" r="5" transform="rotate(-135.429 132.654 29.7336)" fill="#F3F3F3" fill-opacity="0.49"/>
<circle cx="120.572" cy="38.9174" r="5" transform="rotate(62.4792 120.572 38.9174)" fill="#F3F3F3" fill-opacity="0.49"/>
<circle cx="124.827" cy="35.1728" r="5" transform="rotate(-88.3254 124.827 35.1728)" fill="#F3F3F3" fill-opacity="0.49"/>
<circle cx="132" cy="40.1418" r="5" transform="rotate(-90 132 40.1418)" fill="#EDEDED" fill-opacity="0.92"/>
<path d="M118 49C115.372 48.1509 113.931 45.3325 114.78 42.7048C115.629 40.0772 118.447 38.6354 121.075 39.4845C123.702 40.3336 125.144 43.1521 124.295 45.7797C123.446 48.4074 120.628 49.8491 118 49Z" fill="#EDEDED" fill-opacity="0.92"/>
<circle cx="126.071" cy="27.0709" r="5" transform="rotate(-135.429 126.071 27.0709)" fill="#EDEDED" fill-opacity="0.92"/>
</g>
<g opacity="0.3">
<circle cx="113.725" cy="18.6807" r="5" transform="rotate(-135.429 113.725 18.6807)" fill="#EDEDED" fill-opacity="0.92"/>
<circle cx="113.001" cy="31.1418" r="5" transform="rotate(-90 113.001 31.1418)" fill="#F3F3F3" fill-opacity="0.49"/>
<circle cx="91.2952" cy="20.8466" r="5" transform="rotate(107.908 91.2952 20.8466)" fill="#F3F3F3" fill-opacity="0.49"/>
<circle cx="83.2952" cy="20.8466" r="5" transform="rotate(107.908 83.2952 20.8466)" fill="#F3F3F3" fill-opacity="0.49"/>
<circle cx="108.071" cy="15.0709" r="5" transform="rotate(-135.429 108.071 15.0709)" fill="#F3F3F3" fill-opacity="0.49"/>
<circle cx="101" cy="34.1418" r="5" transform="rotate(-90 101 34.1418)" fill="#F3F3F3" fill-opacity="0.49"/>
<circle cx="110.237" cy="25.0709" r="5" transform="rotate(-135.429 110.237 25.0709)" fill="#F3F3F3" fill-opacity="0.49"/>
<circle cx="86.7449" cy="26.3974" r="5" transform="rotate(62.4792 86.7449 26.3974)" fill="#EDEDED" fill-opacity="0.92"/>
<circle cx="81.7446" cy="28.3974" r="5" transform="rotate(62.4792 81.7446 28.3974)" fill="#F3F3F3" fill-opacity="0.49"/>
<path d="M107 29.5001C109.761 29.5001 112 31.7387 112 34.5001C112 37.2615 109.761 39.5001 107 39.5001C104.239 39.5001 102 37.2615 102 34.5001C102 31.7387 104.239 29.5001 107 29.5001Z" fill="#F3F3F3" fill-opacity="0.49"/>
<circle cx="118.122" cy="24.4681" r="5" transform="rotate(107.908 118.122 24.4681)" fill="#F3F3F3" fill-opacity="0.49"/>
<circle cx="106.654" cy="18.7336" r="5" transform="rotate(-135.429 106.654 18.7336)" fill="#F3F3F3" fill-opacity="0.49"/>
<circle cx="94.5717" cy="27.9174" r="5" transform="rotate(62.4792 94.5717 27.9174)" fill="#F3F3F3" fill-opacity="0.49"/>
<circle cx="98.8272" cy="24.1728" r="5" transform="rotate(-88.3254 98.8272 24.1728)" fill="#F3F3F3" fill-opacity="0.49"/>
<circle cx="106" cy="29.1418" r="5" transform="rotate(-90 106 29.1418)" fill="#EDEDED" fill-opacity="0.92"/>
<path d="M92 38C89.3723 37.1509 87.9305 34.3325 88.7797 31.7048C89.6288 29.0772 92.4472 27.6354 95.0749 28.4845C97.7025 29.3336 99.1443 32.1521 98.2952 34.7797C97.4461 37.4074 94.6276 38.8491 92 38Z" fill="#EDEDED" fill-opacity="0.92"/>
<circle cx="100.071" cy="16.0709" r="5" transform="rotate(-135.429 100.071 16.0709)" fill="#EDEDED" fill-opacity="0.92"/>
</g>
<g opacity="0.5">
<circle cx="108.725" cy="12.6807" r="5" transform="rotate(-135.429 108.725 12.6807)" fill="#EDEDED" fill-opacity="0.92"/>
<circle cx="108.001" cy="25.1418" r="5" transform="rotate(-90 108.001 25.1418)" fill="#F3F3F3" fill-opacity="0.49"/>
<circle cx="86.2952" cy="14.8466" r="5" transform="rotate(107.908 86.2952 14.8466)" fill="#F3F3F3" fill-opacity="0.49"/>
<circle cx="78.2952" cy="14.8466" r="5" transform="rotate(107.908 78.2952 14.8466)" fill="#F3F3F3" fill-opacity="0.49"/>
<circle cx="103.071" cy="9.07091" r="5" transform="rotate(-135.429 103.071 9.07091)" fill="#F3F3F3" fill-opacity="0.49"/>
<circle cx="96.0004" cy="28.1418" r="5" transform="rotate(-90 96.0004 28.1418)" fill="#F3F3F3" fill-opacity="0.49"/>
<circle cx="105.237" cy="19.0709" r="5" transform="rotate(-135.429 105.237 19.0709)" fill="#F3F3F3" fill-opacity="0.49"/>
<circle cx="81.7449" cy="20.3974" r="5" transform="rotate(62.4792 81.7449 20.3974)" fill="#EDEDED" fill-opacity="0.92"/>
<circle cx="76.7446" cy="22.3974" r="5" transform="rotate(62.4792 76.7446 22.3974)" fill="#F3F3F3" fill-opacity="0.49"/>
<path d="M102 23.5001C104.761 23.5001 107 25.7387 107 28.5001C107 31.2615 104.761 33.5001 102 33.5001C99.2386 33.5001 97 31.2615 97 28.5001C97 25.7387 99.2386 23.5001 102 23.5001Z" fill="#F3F3F3" fill-opacity="0.49"/>
<circle cx="113.122" cy="18.4681" r="5" transform="rotate(107.908 113.122 18.4681)" fill="#F3F3F3" fill-opacity="0.49"/>
<circle cx="101.654" cy="12.7336" r="5" transform="rotate(-135.429 101.654 12.7336)" fill="#F3F3F3" fill-opacity="0.49"/>
<circle cx="89.5717" cy="21.9174" r="5" transform="rotate(62.4792 89.5717 21.9174)" fill="#F3F3F3" fill-opacity="0.49"/>
<circle cx="93.8272" cy="18.1728" r="5" transform="rotate(-88.3254 93.8272 18.1728)" fill="#F3F3F3" fill-opacity="0.49"/>
<circle cx="101" cy="23.1418" r="5" transform="rotate(-90 101 23.1418)" fill="#EDEDED" fill-opacity="0.92"/>
<path d="M87 32C84.3723 31.1509 82.9305 28.3325 83.7797 25.7048C84.6288 23.0772 87.4472 21.6354 90.0749 22.4845C92.7025 23.3336 94.1443 26.1521 93.2952 28.7797C92.4461 31.4074 89.6276 32.8491 87 32Z" fill="#EDEDED" fill-opacity="0.92"/>
<circle cx="95.0714" cy="10.0709" r="5" transform="rotate(-135.429 95.0714 10.0709)" fill="#EDEDED" fill-opacity="0.92"/>
</g>
<g opacity="0.8">
<circle cx="137.725" cy="-1.31935" r="5" transform="rotate(-135.429 137.725 -1.31935)" fill="#EDEDED" fill-opacity="0.92"/>
<circle cx="137.001" cy="11.1418" r="5" transform="rotate(-90 137.001 11.1418)" fill="#F3F3F3" fill-opacity="0.49"/>
<circle cx="115.295" cy="0.846589" r="5" transform="rotate(107.908 115.295 0.846589)" fill="#F3F3F3" fill-opacity="0.49"/>
<circle cx="107.295" cy="0.846589" r="5" transform="rotate(107.908 107.295 0.846589)" fill="#F3F3F3" fill-opacity="0.49"/>
<circle cx="132.071" cy="-4.92909" r="5" transform="rotate(-135.429 132.071 -4.92909)" fill="#F3F3F3" fill-opacity="0.49"/>
<circle cx="125" cy="14.1418" r="5" transform="rotate(-90 125 14.1418)" fill="#F3F3F3" fill-opacity="0.49"/>
<circle cx="134.237" cy="5.07092" r="5" transform="rotate(-135.429 134.237 5.07092)" fill="#F3F3F3" fill-opacity="0.49"/>
<circle cx="110.745" cy="6.39738" r="5" transform="rotate(62.4792 110.745 6.39738)" fill="#EDEDED" fill-opacity="0.92"/>
<circle cx="105.745" cy="8.39739" r="5" transform="rotate(62.4792 105.745 8.39739)" fill="#F3F3F3" fill-opacity="0.49"/>
<path d="M131 9.50008C133.761 9.50008 136 11.7387 136 14.5001C136 17.2615 133.761 19.5001 131 19.5001C128.239 19.5001 126 17.2615 126 14.5001C126 11.7387 128.239 9.50008 131 9.50008Z" fill="#F3F3F3" fill-opacity="0.49"/>
<circle cx="142.122" cy="4.46805" r="5" transform="rotate(107.908 142.122 4.46805)" fill="#F3F3F3" fill-opacity="0.49"/>
<circle cx="130.654" cy="-1.26643" r="5" transform="rotate(-135.429 130.654 -1.26643)" fill="#F3F3F3" fill-opacity="0.49"/>
<circle cx="118.572" cy="7.91741" r="5" transform="rotate(62.4792 118.572 7.91741)" fill="#F3F3F3" fill-opacity="0.49"/>
<circle cx="122.827" cy="4.17285" r="5" transform="rotate(-88.3254 122.827 4.17285)" fill="#F3F3F3" fill-opacity="0.49"/>
<circle cx="130" cy="9.14177" r="5" transform="rotate(-90 130 9.14177)" fill="#EDEDED" fill-opacity="0.92"/>
<path d="M116 18C113.372 17.1509 111.931 14.3325 112.78 11.7048C113.629 9.07719 116.447 7.63541 119.075 8.48451C121.702 9.33362 123.144 12.1521 122.295 14.7797C121.446 17.4074 118.628 18.8491 116 18Z" fill="#EDEDED" fill-opacity="0.92"/>
<circle cx="124.071" cy="-3.92909" r="5" transform="rotate(-135.429 124.071 -3.92909)" fill="#EDEDED" fill-opacity="0.92"/>
</g>
<g opacity="0.4">
<g filter="url(#filter0_d)">
<rect x="113.468" y="40.2026" width="18.6709" height="28.3797" fill="#A7A7A7"/>
<rect x="115.709" y="29" width="5.97468" height="11.2025" fill="#D1D1D1"/>
<rect x="115.709" y="29" width="5.97468" height="1.49367" fill="#DAB6B6"/>
<rect x="115.709" y="29" width="5.97468" height="1.49367" fill="#DAB6B6"/>
<rect x="115.709" y="29" width="5.97468" height="1.49367" fill="#DAB6B6"/>
<rect x="115.709" y="31.9874" width="5.97468" height="1.49367" fill="#DAB6B6"/>
<rect x="115.709" y="31.9874" width="5.97468" height="1.49367" fill="#DAB6B6"/>
<rect x="115.709" y="31.9874" width="5.97468" height="1.49367" fill="#DAB6B6"/>
</g>
<g filter="url(#filter1_d)">
<path d="M110.481 32.7341V51.9859H135.5V76.0506H110.481H50.7342V51.9859L70.2053 32.7341V51.9859L89.4096 32.7341V51.9859L110.481 32.7341Z" fill="#7A7A7A"/>
</g>
<g filter="url(#filter2_i)">
<rect x="47" y="58.8734" width="14.1899" height="5.97468" fill="#AEC6D3"/>
</g>
<g filter="url(#filter3_i)">
<rect x="62.6835" y="58.8734" width="14.1899" height="5.97468" fill="#AEC6D3"/>
</g>
<g filter="url(#filter4_i)">
<rect x="78.3671" y="58.8734" width="14.1899" height="5.97468" fill="#AEC6D3"/>
</g>
<g filter="url(#filter5_i)">
<rect x="94.0506" y="58.8734" width="14.1899" height="5.97468" fill="#AEC6D3"/>
</g>
</g>
<g filter="url(#filter6_d)">
<rect x="62" y="70" width="40" height="70" fill="#FBF4E4"/>
</g>
<g filter="url(#filter7_d)">
<rect x="37" y="41" width="25" height="95" fill="#717171"/>
</g>
<g filter="url(#filter8_d)">
<rect x="4" y="13" width="33" height="123" fill="#FFA26D"/>
</g>
<rect x="-28" width="33" height="136" fill="#FFA26D"/>
<g filter="url(#filter9_i)">
<rect x="21" y="21" width="9" height="18" fill="#AEC6D3"/>
</g>
<g filter="url(#filter10_i)">
<rect x="21" y="46" width="9" height="18" fill="#AEC6D3"/>
</g>
<g filter="url(#filter11_i)">
<rect x="21" y="70" width="9" height="18" fill="#AEC6D3"/>
</g>
<g filter="url(#filter12_i)">
<rect x="47" y="48" width="9" height="20" fill="#AEC6D3"/>
</g>
<g filter="url(#filter13_i)">
<rect x="87" y="75" width="9" height="20" fill="#AEC6D3"/>
</g>
<g filter="url(#filter14_i)">
<rect x="68" y="75" width="9" height="20" fill="#AEC6D3"/>
</g>
<g filter="url(#filter15_i)">
<rect x="68" y="102" width="9" height="20" fill="#AEC6D3"/>
</g>
<g filter="url(#filter16_i)">
<rect x="87" y="102" width="9" height="20" fill="#AEC6D3"/>
</g>
<g filter="url(#filter17_i)">
<rect x="47" y="74" width="9" height="20" fill="#AEC6D3"/>
</g>
<g filter="url(#filter18_d)">
<rect x="101" y="56" width="40" height="80" fill="#DCCEAC"/>
</g>
<g filter="url(#filter19_i)">
<rect x="120" y="64" width="9" height="20" fill="#AEC6D3"/>
</g>
<g filter="url(#filter20_i)">
<rect x="120" y="92" width="9" height="20" fill="#AEC6D3"/>
</g>
</g>
<defs>
<filter id="filter0_d" x="109.468" y="25" width="26.6709" height="47.5823" filterUnits="userSpaceOnUse" color-interpolation-filters="sRGB">
<feFlood flood-opacity="0" result="BackgroundImageFix"/>
<feColorMatrix in="SourceAlpha" type="matrix" values="0 0 0 0 0 0 0 0 0 0 0 0 0 0 0 0 0 0 127 0"/>
<feOffset/>
<feGaussianBlur stdDeviation="2"/>
<feColorMatrix type="matrix" values="0 0 0 0 0 0 0 0 0 0 0 0 0 0 0 0 0 0 0.12 0"/>
<feBlend mode="normal" in2="BackgroundImageFix" result="effect1_dropShadow"/>
<feBlend mode="normal" in="SourceGraphic" in2="effect1_dropShadow" result="shape"/>
</filter>
<filter id="filter1_d" x="46.7342" y="28.7341" width="92.7658" height="51.3165" filterUnits="userSpaceOnUse" color-interpolation-filters="sRGB">
<feFlood flood-opacity="0" result="BackgroundImageFix"/>
<feColorMatrix in="SourceAlpha" type="matrix" values="0 0 0 0 0 0 0 0 0 0 0 0 0 0 0 0 0 0 127 0"/>
<feOffset/>
<feGaussianBlur stdDeviation="2"/>
<feColorMatrix type="matrix" values="0 0 0 0 0 0 0 0 0 0 0 0 0 0 0 0 0 0 0.25 0"/>
<feBlend mode="normal" in2="BackgroundImageFix" result="effect1_dropShadow"/>
<feBlend mode="normal" in="SourceGraphic" in2="effect1_dropShadow" result="shape"/>
</filter>
<filter id="filter2_i" x="46" y="58.8734" width="15.1899" height="7.97468" filterUnits="userSpaceOnUse" color-interpolation-filters="sRGB">
<feFlood flood-opacity="0" result="BackgroundImageFix"/>
<feBlend mode="normal" in="SourceGraphic" in2="BackgroundImageFix" result="shape"/>
<feColorMatrix in="SourceAlpha" type="matrix" values="0 0 0 0 0 0 0 0 0 0 0 0 0 0 0 0 0 0 127 0" result="hardAlpha"/>
<feOffset dx="-1" dy="2"/>
<feGaussianBlur stdDeviation="1.5"/>
<feComposite in2="hardAlpha" operator="arithmetic" k2="-1" k3="1"/>
<feColorMatrix type="matrix" values="0 0 0 0 0.0687326 0 0 0 0 0.128536 0 0 0 0 0.154167 0 0 0 0.25 0"/>
<feBlend mode="normal" in2="shape" result="effect1_innerShadow"/>
</filter>
<filter id="filter3_i" x="61.6835" y="58.8734" width="15.1899" height="7.97468" filterUnits="userSpaceOnUse" color-interpolation-filters="sRGB">
<feFlood flood-opacity="0" result="BackgroundImageFix"/>
<feBlend mode="normal" in="SourceGraphic" in2="BackgroundImageFix" result="shape"/>
<feColorMatrix in="SourceAlpha" type="matrix" values="0 0 0 0 0 0 0 0 0 0 0 0 0 0 0 0 0 0 127 0" result="hardAlpha"/>
<feOffset dx="-1" dy="2"/>
<feGaussianBlur stdDeviation="1.5"/>
<feComposite in2="hardAlpha" operator="arithmetic" k2="-1" k3="1"/>
<feColorMatrix type="matrix" values="0 0 0 0 0.0687326 0 0 0 0 0.128536 0 0 0 0 0.154167 0 0 0 0.25 0"/>
<feBlend mode="normal" in2="shape" result="effect1_innerShadow"/>
</filter>
<filter id="filter4_i" x="77.3671" y="58.8734" width="15.1899" height="7.97468" filterUnits="userSpaceOnUse" color-interpolation-filters="sRGB">
<feFlood flood-opacity="0" result="BackgroundImageFix"/>
<feBlend mode="normal" in="SourceGraphic" in2="BackgroundImageFix" result="shape"/>
<feColorMatrix in="SourceAlpha" type="matrix" values="0 0 0 0 0 0 0 0 0 0 0 0 0 0 0 0 0 0 127 0" result="hardAlpha"/>
<feOffset dx="-1" dy="2"/>
<feGaussianBlur stdDeviation="1.5"/>
<feComposite in2="hardAlpha" operator="arithmetic" k2="-1" k3="1"/>
<feColorMatrix type="matrix" values="0 0 0 0 0.0687326 0 0 0 0 0.128536 0 0 0 0 0.154167 0 0 0 0.25 0"/>
<feBlend mode="normal" in2="shape" result="effect1_innerShadow"/>
</filter>
<filter id="filter5_i" x="93.0506" y="58.8734" width="15.1899" height="7.97468" filterUnits="userSpaceOnUse" color-interpolation-filters="sRGB">
<feFlood flood-opacity="0" result="BackgroundImageFix"/>
<feBlend mode="normal" in="SourceGraphic" in2="BackgroundImageFix" result="shape"/>
<feColorMatrix in="SourceAlpha" type="matrix" values="0 0 0 0 0 0 0 0 0 0 0 0 0 0 0 0 0 0 127 0" result="hardAlpha"/>
<feOffset dx="-1" dy="2"/>
<feGaussianBlur stdDeviation="1.5"/>
<feComposite in2="hardAlpha" operator="arithmetic" k2="-1" k3="1"/>
<feColorMatrix type="matrix" values="0 0 0 0 0.0687326 0 0 0 0 0.128536 0 0 0 0 0.154167 0 0 0 0.25 0"/>
<feBlend mode="normal" in2="shape" result="effect1_innerShadow"/>
</filter>
<filter id="filter6_d" x="58" y="65" width="48" height="78" filterUnits="userSpaceOnUse" color-interpolation-filters="sRGB">
<feFlood flood-opacity="0" result="BackgroundImageFix"/>
<feColorMatrix in="SourceAlpha" type="matrix" values="0 0 0 0 0 0 0 0 0 0 0 0 0 0 0 0 0 0 127 0"/>
<feOffset dy="-1"/>
<feGaussianBlur stdDeviation="2"/>
<feColorMatrix type="matrix" values="0 0 0 0 0 0 0 0 0 0 0 0 0 0 0 0 0 0 0.15 0"/>
<feBlend mode="normal" in2="BackgroundImageFix" result="effect1_dropShadow"/>
<feBlend mode="normal" in="SourceGraphic" in2="effect1_dropShadow" result="shape"/>
</filter>
<filter id="filter7_d" x="33" y="37" width="33" height="103" filterUnits="userSpaceOnUse" color-interpolation-filters="sRGB">
<feFlood flood-opacity="0" result="BackgroundImageFix"/>
<feColorMatrix in="SourceAlpha" type="matrix" values="0 0 0 0 0 0 0 0 0 0 0 0 0 0 0 0 0 0 127 0"/>
<feOffset/>
<feGaussianBlur stdDeviation="2"/>
<feColorMatrix type="matrix" values="0 0 0 0 0 0 0 0 0 0 0 0 0 0 0 0 0 0 0.12 0"/>
<feBlend mode="normal" in2="BackgroundImageFix" result="effect1_dropShadow"/>
<feBlend mode="normal" in="SourceGraphic" in2="effect1_dropShadow" result="shape"/>
</filter>
<filter id="filter8_d" x="0" y="9" width="41" height="131" filterUnits="userSpaceOnUse" color-interpolation-filters="sRGB">
<feFlood flood-opacity="0" result="BackgroundImageFix"/>
<feColorMatrix in="SourceAlpha" type="matrix" values="0 0 0 0 0 0 0 0 0 0 0 0 0 0 0 0 0 0 127 0"/>
<feOffset/>
<feGaussianBlur stdDeviation="2"/>
<feColorMatrix type="matrix" values="0 0 0 0 0 0 0 0 0 0 0 0 0 0 0 0 0 0 0.12 0"/>
<feBlend mode="normal" in2="BackgroundImageFix" result="effect1_dropShadow"/>
<feBlend mode="normal" in="SourceGraphic" in2="effect1_dropShadow" result="shape"/>
</filter>
<filter id="filter9_i" x="21" y="21" width="9" height="20" filterUnits="userSpaceOnUse" color-interpolation-filters="sRGB">
<feFlood flood-opacity="0" result="BackgroundImageFix"/>
<feBlend mode="normal" in="SourceGraphic" in2="BackgroundImageFix" result="shape"/>
<feColorMatrix in="SourceAlpha" type="matrix" values="0 0 0 0 0 0 0 0 0 0 0 0 0 0 0 0 0 0 127 0" result="hardAlpha"/>
<feOffset dy="2"/>
<feGaussianBlur stdDeviation="1.5"/>
<feComposite in2="hardAlpha" operator="arithmetic" k2="-1" k3="1"/>
<feColorMatrix type="matrix" values="0 0 0 0 0.120729 0 0 0 0 0.195462 0 0 0 0 0.2375 0 0 0 0.2 0"/>
<feBlend mode="normal" in2="shape" result="effect1_innerShadow"/>
</filter>
<filter id="filter10_i" x="21" y="46" width="9" height="20" filterUnits="userSpaceOnUse" color-interpolation-filters="sRGB">
<feFlood flood-opacity="0" result="BackgroundImageFix"/>
<feBlend mode="normal" in="SourceGraphic" in2="BackgroundImageFix" result="shape"/>
<feColorMatrix in="SourceAlpha" type="matrix" values="0 0 0 0 0 0 0 0 0 0 0 0 0 0 0 0 0 0 127 0" result="hardAlpha"/>
<feOffset dy="2"/>
<feGaussianBlur stdDeviation="1.5"/>
<feComposite in2="hardAlpha" operator="arithmetic" k2="-1" k3="1"/>
<feColorMatrix type="matrix" values="0 0 0 0 0.120729 0 0 0 0 0.195462 0 0 0 0 0.2375 0 0 0 0.2 0"/>
<feBlend mode="normal" in2="shape" result="effect1_innerShadow"/>
</filter>
<filter id="filter11_i" x="21" y="70" width="9" height="20" filterUnits="userSpaceOnUse" color-interpolation-filters="sRGB">
<feFlood flood-opacity="0" result="BackgroundImageFix"/>
<feBlend mode="normal" in="SourceGraphic" in2="BackgroundImageFix" result="shape"/>
<feColorMatrix in="SourceAlpha" type="matrix" values="0 0 0 0 0 0 0 0 0 0 0 0 0 0 0 0 0 0 127 0" result="hardAlpha"/>
<feOffset dy="2"/>
<feGaussianBlur stdDeviation="1.5"/>
<feComposite in2="hardAlpha" operator="arithmetic" k2="-1" k3="1"/>
<feColorMatrix type="matrix" values="0 0 0 0 0.120729 0 0 0 0 0.195462 0 0 0 0 0.2375 0 0 0 0.2 0"/>
<feBlend mode="normal" in2="shape" result="effect1_innerShadow"/>
</filter>
<filter id="filter12_i" x="47" y="48" width="9" height="22" filterUnits="userSpaceOnUse" color-interpolation-filters="sRGB">
<feFlood flood-opacity="0" result="BackgroundImageFix"/>
<feBlend mode="normal" in="SourceGraphic" in2="BackgroundImageFix" result="shape"/>
<feColorMatrix in="SourceAlpha" type="matrix" values="0 0 0 0 0 0 0 0 0 0 0 0 0 0 0 0 0 0 127 0" result="hardAlpha"/>
<feOffset dy="2"/>
<feGaussianBlur stdDeviation="1.5"/>
<feComposite in2="hardAlpha" operator="arithmetic" k2="-1" k3="1"/>
<feColorMatrix type="matrix" values="0 0 0 0 0.120729 0 0 0 0 0.195462 0 0 0 0 0.2375 0 0 0 0.2 0"/>
<feBlend mode="normal" in2="shape" result="effect1_innerShadow"/>
</filter>
<filter id="filter13_i" x="87" y="75" width="9" height="22" filterUnits="userSpaceOnUse" color-interpolation-filters="sRGB">
<feFlood flood-opacity="0" result="BackgroundImageFix"/>
<feBlend mode="normal" in="SourceGraphic" in2="BackgroundImageFix" result="shape"/>
<feColorMatrix in="SourceAlpha" type="matrix" values="0 0 0 0 0 0 0 0 0 0 0 0 0 0 0 0 0 0 127 0" result="hardAlpha"/>
<feOffset dy="2"/>
<feGaussianBlur stdDeviation="1.5"/>
<feComposite in2="hardAlpha" operator="arithmetic" k2="-1" k3="1"/>
<feColorMatrix type="matrix" values="0 0 0 0 0.120729 0 0 0 0 0.195462 0 0 0 0 0.2375 0 0 0 0.2 0"/>
<feBlend mode="normal" in2="shape" result="effect1_innerShadow"/>
</filter>
<filter id="filter14_i" x="68" y="75" width="9" height="22" filterUnits="userSpaceOnUse" color-interpolation-filters="sRGB">
<feFlood flood-opacity="0" result="BackgroundImageFix"/>
<feBlend mode="normal" in="SourceGraphic" in2="BackgroundImageFix" result="shape"/>
<feColorMatrix in="SourceAlpha" type="matrix" values="0 0 0 0 0 0 0 0 0 0 0 0 0 0 0 0 0 0 127 0" result="hardAlpha"/>
<feOffset dy="2"/>
<feGaussianBlur stdDeviation="1.5"/>
<feComposite in2="hardAlpha" operator="arithmetic" k2="-1" k3="1"/>
<feColorMatrix type="matrix" values="0 0 0 0 0.120729 0 0 0 0 0.195462 0 0 0 0 0.2375 0 0 0 0.2 0"/>
<feBlend mode="normal" in2="shape" result="effect1_innerShadow"/>
</filter>
<filter id="filter15_i" x="68" y="102" width="9" height="22" filterUnits="userSpaceOnUse" color-interpolation-filters="sRGB">
<feFlood flood-opacity="0" result="BackgroundImageFix"/>
<feBlend mode="normal" in="SourceGraphic" in2="BackgroundImageFix" result="shape"/>
<feColorMatrix in="SourceAlpha" type="matrix" values="0 0 0 0 0 0 0 0 0 0 0 0 0 0 0 0 0 0 127 0" result="hardAlpha"/>
<feOffset dy="2"/>
<feGaussianBlur stdDeviation="1.5"/>
<feComposite in2="hardAlpha" operator="arithmetic" k2="-1" k3="1"/>
<feColorMatrix type="matrix" values="0 0 0 0 0.120729 0 0 0 0 0.195462 0 0 0 0 0.2375 0 0 0 0.2 0"/>
<feBlend mode="normal" in2="shape" result="effect1_innerShadow"/>
</filter>
<filter id="filter16_i" x="87" y="102" width="9" height="22" filterUnits="userSpaceOnUse" color-interpolation-filters="sRGB">
<feFlood flood-opacity="0" result="BackgroundImageFix"/>
<feBlend mode="normal" in="SourceGraphic" in2="BackgroundImageFix" result="shape"/>
<feColorMatrix in="SourceAlpha" type="matrix" values="0 0 0 0 0 0 0 0 0 0 0 0 0 0 0 0 0 0 127 0" result="hardAlpha"/>
<feOffset dy="2"/>
<feGaussianBlur stdDeviation="1.5"/>
<feComposite in2="hardAlpha" operator="arithmetic" k2="-1" k3="1"/>
<feColorMatrix type="matrix" values="0 0 0 0 0.120729 0 0 0 0 0.195462 0 0 0 0 0.2375 0 0 0 0.2 0"/>
<feBlend mode="normal" in2="shape" result="effect1_innerShadow"/>
</filter>
<filter id="filter17_i" x="47" y="74" width="9" height="22" filterUnits="userSpaceOnUse" color-interpolation-filters="sRGB">
<feFlood flood-opacity="0" result="BackgroundImageFix"/>
<feBlend mode="normal" in="SourceGraphic" in2="BackgroundImageFix" result="shape"/>
<feColorMatrix in="SourceAlpha" type="matrix" values="0 0 0 0 0 0 0 0 0 0 0 0 0 0 0 0 0 0 127 0" result="hardAlpha"/>
<feOffset dy="2"/>
<feGaussianBlur stdDeviation="1.5"/>
<feComposite in2="hardAlpha" operator="arithmetic" k2="-1" k3="1"/>
<feColorMatrix type="matrix" values="0 0 0 0 0.120729 0 0 0 0 0.195462 0 0 0 0 0.2375 0 0 0 0.2 0"/>
<feBlend mode="normal" in2="shape" result="effect1_innerShadow"/>
</filter>
<filter id="filter18_d" x="97" y="51" width="48" height="88" filterUnits="userSpaceOnUse" color-interpolation-filters="sRGB">
<feFlood flood-opacity="0" result="BackgroundImageFix"/>
<feColorMatrix in="SourceAlpha" type="matrix" values="0 0 0 0 0 0 0 0 0 0 0 0 0 0 0 0 0 0 127 0"/>
<feOffset dy="-1"/>
<feGaussianBlur stdDeviation="2"/>
<feColorMatrix type="matrix" values="0 0 0 0 0 0 0 0 0 0 0 0 0 0 0 0 0 0 0.12 0"/>
<feBlend mode="normal" in2="BackgroundImageFix" result="effect1_dropShadow"/>
<feBlend mode="normal" in="SourceGraphic" in2="effect1_dropShadow" result="shape"/>
</filter>
<filter id="filter19_i" x="120" y="64" width="9" height="22" filterUnits="userSpaceOnUse" color-interpolation-filters="sRGB">
<feFlood flood-opacity="0" result="BackgroundImageFix"/>
<feBlend mode="normal" in="SourceGraphic" in2="BackgroundImageFix" result="shape"/>
<feColorMatrix in="SourceAlpha" type="matrix" values="0 0 0 0 0 0 0 0 0 0 0 0 0 0 0 0 0 0 127 0" result="hardAlpha"/>
<feOffset dy="2"/>
<feGaussianBlur stdDeviation="1.5"/>
<feComposite in2="hardAlpha" operator="arithmetic" k2="-1" k3="1"/>
<feColorMatrix type="matrix" values="0 0 0 0 0.120729 0 0 0 0 0.195462 0 0 0 0 0.2375 0 0 0 0.2 0"/>
<feBlend mode="normal" in2="shape" result="effect1_innerShadow"/>
</filter>
<filter id="filter20_i" x="120" y="92" width="9" height="22" filterUnits="userSpaceOnUse" color-interpolation-filters="sRGB">
<feFlood flood-opacity="0" result="BackgroundImageFix"/>
<feBlend mode="normal" in="SourceGraphic" in2="BackgroundImageFix" result="shape"/>
<feColorMatrix in="SourceAlpha" type="matrix" values="0 0 0 0 0 0 0 0 0 0 0 0 0 0 0 0 0 0 127 0" result="hardAlpha"/>
<feOffset dy="2"/>
<feGaussianBlur stdDeviation="1.5"/>
<feComposite in2="hardAlpha" operator="arithmetic" k2="-1" k3="1"/>
<feColorMatrix type="matrix" values="0 0 0 0 0.120729 0 0 0 0 0.195462 0 0 0 0 0.2375 0 0 0 0.2 0"/>
<feBlend mode="normal" in2="shape" result="effect1_innerShadow"/>
</filter>
<clipPath id="clip0">
<rect width="136" height="136" fill="white"/>
</clipPath>
</defs>
</svg>
