<svg width="136" height="136" viewBox="0 0 136 136" fill="none" xmlns="http://www.w3.org/2000/svg">
<g clip-path="url(#clip0)">
<rect x="-6" y="-14" width="192" height="164" fill="#CADAE1"/>
<g opacity="0.6">
<circle cx="67.7253" cy="14.6804" r="5" transform="rotate(-135.429 67.7253 14.6804)" fill="#EDEDED" fill-opacity="0.92"/>
<circle cx="67.0005" cy="27.1415" r="5" transform="rotate(-90 67.0005 27.1415)" fill="#F3F3F3" fill-opacity="0.49"/>
<circle cx="45.2952" cy="16.8463" r="5" transform="rotate(107.908 45.2952 16.8463)" fill="#F3F3F3" fill-opacity="0.49"/>
<circle cx="37.2952" cy="16.8463" r="5" transform="rotate(107.908 37.2952 16.8463)" fill="#F3F3F3" fill-opacity="0.49"/>
<circle cx="62.0713" cy="11.0706" r="5" transform="rotate(-135.429 62.0713 11.0706)" fill="#F3F3F3" fill-opacity="0.49"/>
<circle cx="55.0004" cy="30.1415" r="5" transform="rotate(-90 55.0004 30.1415)" fill="#F3F3F3" fill-opacity="0.49"/>
<circle cx="64.2375" cy="21.0706" r="5" transform="rotate(-135.429 64.2375 21.0706)" fill="#F3F3F3" fill-opacity="0.49"/>
<circle cx="40.7449" cy="22.3971" r="5" transform="rotate(62.4792 40.7449 22.3971)" fill="#EDEDED" fill-opacity="0.92"/>
<circle cx="35.7446" cy="24.3971" r="5" transform="rotate(62.4792 35.7446 24.3971)" fill="#F3F3F3" fill-opacity="0.49"/>
<path d="M61 25.4998C63.7614 25.4998 66 27.7383 66 30.4998C66 33.2612 63.7614 35.4998 61 35.4998C58.2385 35.4998 56 33.2612 56 30.4998C56 27.7383 58.2385 25.4998 61 25.4998Z" fill="#F3F3F3" fill-opacity="0.49"/>
<circle cx="72.1224" cy="20.4677" r="5" transform="rotate(107.908 72.1224 20.4677)" fill="#F3F3F3" fill-opacity="0.49"/>
<circle cx="60.6545" cy="14.7333" r="5" transform="rotate(-135.429 60.6545 14.7333)" fill="#F3F3F3" fill-opacity="0.49"/>
<circle cx="48.5717" cy="23.9171" r="5" transform="rotate(62.4792 48.5717 23.9171)" fill="#F3F3F3" fill-opacity="0.49"/>
<circle cx="52.8272" cy="20.1725" r="5" transform="rotate(-88.3254 52.8272 20.1725)" fill="#F3F3F3" fill-opacity="0.49"/>
<circle cx="60" cy="25.1415" r="5" transform="rotate(-90 60 25.1415)" fill="#EDEDED" fill-opacity="0.92"/>
<path d="M46 33.9997C43.3723 33.1506 41.9305 30.3322 42.7797 27.7045C43.6288 25.0769 46.4472 23.6351 49.0749 24.4842C51.7025 25.3333 53.1443 28.1518 52.2952 30.7794C51.4461 33.407 48.6276 34.8488 46 33.9997Z" fill="#EDEDED" fill-opacity="0.92"/>
<circle cx="54.0714" cy="12.0706" r="5" transform="rotate(-135.429 54.0714 12.0706)" fill="#EDEDED" fill-opacity="0.92"/>
</g>
<g opacity="0.6">
<circle cx="135.725" cy="14.6803" r="5" transform="rotate(-135.429 135.725 14.6803)" fill="#EDEDED" fill-opacity="0.92"/>
<circle cx="135.001" cy="27.1414" r="5" transform="rotate(-90 135.001 27.1414)" fill="#F3F3F3" fill-opacity="0.49"/>
<circle cx="113.295" cy="16.8462" r="5" transform="rotate(107.908 113.295 16.8462)" fill="#F3F3F3" fill-opacity="0.49"/>
<circle cx="105.295" cy="16.8462" r="5" transform="rotate(107.908 105.295 16.8462)" fill="#F3F3F3" fill-opacity="0.49"/>
<circle cx="130.071" cy="11.0705" r="5" transform="rotate(-135.429 130.071 11.0705)" fill="#F3F3F3" fill-opacity="0.49"/>
<circle cx="123" cy="30.1414" r="5" transform="rotate(-90 123 30.1414)" fill="#F3F3F3" fill-opacity="0.49"/>
<circle cx="132.237" cy="21.0705" r="5" transform="rotate(-135.429 132.237 21.0705)" fill="#F3F3F3" fill-opacity="0.49"/>
<circle cx="108.745" cy="22.397" r="5" transform="rotate(62.4792 108.745 22.397)" fill="#EDEDED" fill-opacity="0.92"/>
<circle cx="103.745" cy="24.397" r="5" transform="rotate(62.4792 103.745 24.397)" fill="#F3F3F3" fill-opacity="0.49"/>
<path d="M129 25.4997C131.761 25.4997 134 27.7383 134 30.4997C134 33.2611 131.761 35.4997 129 35.4997C126.239 35.4997 124 33.2611 124 30.4997C124 27.7383 126.239 25.4997 129 25.4997Z" fill="#F3F3F3" fill-opacity="0.49"/>
<circle cx="140.122" cy="20.4677" r="5" transform="rotate(107.908 140.122 20.4677)" fill="#F3F3F3" fill-opacity="0.49"/>
<circle cx="128.654" cy="14.7332" r="5" transform="rotate(-135.429 128.654 14.7332)" fill="#F3F3F3" fill-opacity="0.49"/>
<circle cx="116.572" cy="23.917" r="5" transform="rotate(62.4792 116.572 23.917)" fill="#F3F3F3" fill-opacity="0.49"/>
<circle cx="120.827" cy="20.1725" r="5" transform="rotate(-88.3254 120.827 20.1725)" fill="#F3F3F3" fill-opacity="0.49"/>
<circle cx="128" cy="25.1414" r="5" transform="rotate(-90 128 25.1414)" fill="#EDEDED" fill-opacity="0.92"/>
<path d="M114 33.9997C111.372 33.1506 109.931 30.3321 110.78 27.7045C111.629 25.0768 114.447 23.635 117.075 24.4841C119.702 25.3333 121.144 28.1517 120.295 30.7794C119.446 33.407 116.628 34.8488 114 33.9997Z" fill="#EDEDED" fill-opacity="0.92"/>
<circle cx="122.071" cy="12.0705" r="5" transform="rotate(-135.429 122.071 12.0705)" fill="#EDEDED" fill-opacity="0.92"/>
</g>
<g filter="url(#filter0_d)">
<rect x="137" y="48" width="40" height="88" fill="#CFBD8E"/>
</g>
<g filter="url(#filter1_d)">
<rect x="108" y="64" width="40" height="72" fill="#FBF4E4"/>
</g>
<g filter="url(#filter2_d)">
<rect x="83" y="41" width="25" height="95" fill="#AFA894"/>
</g>
<g filter="url(#filter3_d)">
<rect x="37" y="84" width="46" height="52" fill="#DFD5BD"/>
</g>
<g filter="url(#filter4_d)">
<rect x="4" y="13" width="33" height="123" fill="#FCD163"/>
</g>
<rect x="-28" width="33" height="136" fill="#FCD163"/>
<g filter="url(#filter5_i)">
<rect x="21" y="21" width="9" height="18" fill="#AEC6D3"/>
</g>
<g filter="url(#filter6_i)">
<rect x="21" y="46" width="9" height="18" fill="#AEC6D3"/>
</g>
<g filter="url(#filter7_i)">
<rect x="21" y="70" width="9" height="18" fill="#AEC6D3"/>
</g>
<g filter="url(#filter8_i)">
<rect x="68" y="97" width="9" height="20" fill="#AEC6D3"/>
</g>
<g filter="url(#filter9_i)">
<rect x="44" y="97" width="9" height="20" fill="#AEC6D3"/>
</g>
<g filter="url(#filter10_i)">
<rect x="93" y="48" width="9" height="20" fill="#AEC6D3"/>
</g>
<g filter="url(#filter11_i)">
<rect x="130" y="70" width="9" height="20" fill="#AEC6D3"/>
</g>
<g filter="url(#filter12_i)">
<rect x="114" y="70" width="9" height="20" fill="#AEC6D3"/>
</g>
<g filter="url(#filter13_i)">
<rect x="114" y="97" width="9" height="20" fill="#AEC6D3"/>
</g>
<g filter="url(#filter14_i)">
<rect x="130" y="97" width="9" height="20" fill="#AEC6D3"/>
</g>
<g filter="url(#filter15_i)">
<rect x="93" y="74" width="9" height="20" fill="#AEC6D3"/>
</g>
</g>
<defs>
<filter id="filter0_d" x="133" y="44" width="48" height="96" filterUnits="userSpaceOnUse" color-interpolation-filters="sRGB">
<feFlood flood-opacity="0" result="BackgroundImageFix"/>
<feColorMatrix in="SourceAlpha" type="matrix" values="0 0 0 0 0 0 0 0 0 0 0 0 0 0 0 0 0 0 127 0"/>
<feOffset/>
<feGaussianBlur stdDeviation="2"/>
<feColorMatrix type="matrix" values="0 0 0 0 0 0 0 0 0 0 0 0 0 0 0 0 0 0 0.12 0"/>
<feBlend mode="normal" in2="BackgroundImageFix" result="effect1_dropShadow"/>
<feBlend mode="normal" in="SourceGraphic" in2="effect1_dropShadow" result="shape"/>
</filter>
<filter id="filter1_d" x="104" y="60" width="48" height="80" filterUnits="userSpaceOnUse" color-interpolation-filters="sRGB">
<feFlood flood-opacity="0" result="BackgroundImageFix"/>
<feColorMatrix in="SourceAlpha" type="matrix" values="0 0 0 0 0 0 0 0 0 0 0 0 0 0 0 0 0 0 127 0"/>
<feOffset/>
<feGaussianBlur stdDeviation="2"/>
<feColorMatrix type="matrix" values="0 0 0 0 0 0 0 0 0 0 0 0 0 0 0 0 0 0 0.12 0"/>
<feBlend mode="normal" in2="BackgroundImageFix" result="effect1_dropShadow"/>
<feBlend mode="normal" in="SourceGraphic" in2="effect1_dropShadow" result="shape"/>
</filter>
<filter id="filter2_d" x="79" y="37" width="33" height="103" filterUnits="userSpaceOnUse" color-interpolation-filters="sRGB">
<feFlood flood-opacity="0" result="BackgroundImageFix"/>
<feColorMatrix in="SourceAlpha" type="matrix" values="0 0 0 0 0 0 0 0 0 0 0 0 0 0 0 0 0 0 127 0"/>
<feOffset/>
<feGaussianBlur stdDeviation="2"/>
<feColorMatrix type="matrix" values="0 0 0 0 0 0 0 0 0 0 0 0 0 0 0 0 0 0 0.12 0"/>
<feBlend mode="normal" in2="BackgroundImageFix" result="effect1_dropShadow"/>
<feBlend mode="normal" in="SourceGraphic" in2="effect1_dropShadow" result="shape"/>
</filter>
<filter id="filter3_d" x="33" y="80" width="54" height="60" filterUnits="userSpaceOnUse" color-interpolation-filters="sRGB">
<feFlood flood-opacity="0" result="BackgroundImageFix"/>
<feColorMatrix in="SourceAlpha" type="matrix" values="0 0 0 0 0 0 0 0 0 0 0 0 0 0 0 0 0 0 127 0"/>
<feOffset/>
<feGaussianBlur stdDeviation="2"/>
<feColorMatrix type="matrix" values="0 0 0 0 0 0 0 0 0 0 0 0 0 0 0 0 0 0 0.12 0"/>
<feBlend mode="normal" in2="BackgroundImageFix" result="effect1_dropShadow"/>
<feBlend mode="normal" in="SourceGraphic" in2="effect1_dropShadow" result="shape"/>
</filter>
<filter id="filter4_d" x="0" y="9" width="41" height="131" filterUnits="userSpaceOnUse" color-interpolation-filters="sRGB">
<feFlood flood-opacity="0" result="BackgroundImageFix"/>
<feColorMatrix in="SourceAlpha" type="matrix" values="0 0 0 0 0 0 0 0 0 0 0 0 0 0 0 0 0 0 127 0"/>
<feOffset/>
<feGaussianBlur stdDeviation="2"/>
<feColorMatrix type="matrix" values="0 0 0 0 0 0 0 0 0 0 0 0 0 0 0 0 0 0 0.12 0"/>
<feBlend mode="normal" in2="BackgroundImageFix" result="effect1_dropShadow"/>
<feBlend mode="normal" in="SourceGraphic" in2="effect1_dropShadow" result="shape"/>
</filter>
<filter id="filter5_i" x="21" y="21" width="9" height="20" filterUnits="userSpaceOnUse" color-interpolation-filters="sRGB">
<feFlood flood-opacity="0" result="BackgroundImageFix"/>
<feBlend mode="normal" in="SourceGraphic" in2="BackgroundImageFix" result="shape"/>
<feColorMatrix in="SourceAlpha" type="matrix" values="0 0 0 0 0 0 0 0 0 0 0 0 0 0 0 0 0 0 127 0" result="hardAlpha"/>
<feOffset dy="2"/>
<feGaussianBlur stdDeviation="1.5"/>
<feComposite in2="hardAlpha" operator="arithmetic" k2="-1" k3="1"/>
<feColorMatrix type="matrix" values="0 0 0 0 0.120729 0 0 0 0 0.195462 0 0 0 0 0.2375 0 0 0 0.2 0"/>
<feBlend mode="normal" in2="shape" result="effect1_innerShadow"/>
</filter>
<filter id="filter6_i" x="21" y="46" width="9" height="20" filterUnits="userSpaceOnUse" color-interpolation-filters="sRGB">
<feFlood flood-opacity="0" result="BackgroundImageFix"/>
<feBlend mode="normal" in="SourceGraphic" in2="BackgroundImageFix" result="shape"/>
<feColorMatrix in="SourceAlpha" type="matrix" values="0 0 0 0 0 0 0 0 0 0 0 0 0 0 0 0 0 0 127 0" result="hardAlpha"/>
<feOffset dy="2"/>
<feGaussianBlur stdDeviation="1.5"/>
<feComposite in2="hardAlpha" operator="arithmetic" k2="-1" k3="1"/>
<feColorMatrix type="matrix" values="0 0 0 0 0.120729 0 0 0 0 0.195462 0 0 0 0 0.2375 0 0 0 0.2 0"/>
<feBlend mode="normal" in2="shape" result="effect1_innerShadow"/>
</filter>
<filter id="filter7_i" x="21" y="70" width="9" height="20" filterUnits="userSpaceOnUse" color-interpolation-filters="sRGB">
<feFlood flood-opacity="0" result="BackgroundImageFix"/>
<feBlend mode="normal" in="SourceGraphic" in2="BackgroundImageFix" result="shape"/>
<feColorMatrix in="SourceAlpha" type="matrix" values="0 0 0 0 0 0 0 0 0 0 0 0 0 0 0 0 0 0 127 0" result="hardAlpha"/>
<feOffset dy="2"/>
<feGaussianBlur stdDeviation="1.5"/>
<feComposite in2="hardAlpha" operator="arithmetic" k2="-1" k3="1"/>
<feColorMatrix type="matrix" values="0 0 0 0 0.120729 0 0 0 0 0.195462 0 0 0 0 0.2375 0 0 0 0.2 0"/>
<feBlend mode="normal" in2="shape" result="effect1_innerShadow"/>
</filter>
<filter id="filter8_i" x="68" y="97" width="9" height="22" filterUnits="userSpaceOnUse" color-interpolation-filters="sRGB">
<feFlood flood-opacity="0" result="BackgroundImageFix"/>
<feBlend mode="normal" in="SourceGraphic" in2="BackgroundImageFix" result="shape"/>
<feColorMatrix in="SourceAlpha" type="matrix" values="0 0 0 0 0 0 0 0 0 0 0 0 0 0 0 0 0 0 127 0" result="hardAlpha"/>
<feOffset dy="2"/>
<feGaussianBlur stdDeviation="1.5"/>
<feComposite in2="hardAlpha" operator="arithmetic" k2="-1" k3="1"/>
<feColorMatrix type="matrix" values="0 0 0 0 0.120729 0 0 0 0 0.195462 0 0 0 0 0.2375 0 0 0 0.2 0"/>
<feBlend mode="normal" in2="shape" result="effect1_innerShadow"/>
</filter>
<filter id="filter9_i" x="44" y="97" width="9" height="22" filterUnits="userSpaceOnUse" color-interpolation-filters="sRGB">
<feFlood flood-opacity="0" result="BackgroundImageFix"/>
<feBlend mode="normal" in="SourceGraphic" in2="BackgroundImageFix" result="shape"/>
<feColorMatrix in="SourceAlpha" type="matrix" values="0 0 0 0 0 0 0 0 0 0 0 0 0 0 0 0 0 0 127 0" result="hardAlpha"/>
<feOffset dy="2"/>
<feGaussianBlur stdDeviation="1.5"/>
<feComposite in2="hardAlpha" operator="arithmetic" k2="-1" k3="1"/>
<feColorMatrix type="matrix" values="0 0 0 0 0.120729 0 0 0 0 0.195462 0 0 0 0 0.2375 0 0 0 0.2 0"/>
<feBlend mode="normal" in2="shape" result="effect1_innerShadow"/>
</filter>
<filter id="filter10_i" x="93" y="48" width="9" height="22" filterUnits="userSpaceOnUse" color-interpolation-filters="sRGB">
<feFlood flood-opacity="0" result="BackgroundImageFix"/>
<feBlend mode="normal" in="SourceGraphic" in2="BackgroundImageFix" result="shape"/>
<feColorMatrix in="SourceAlpha" type="matrix" values="0 0 0 0 0 0 0 0 0 0 0 0 0 0 0 0 0 0 127 0" result="hardAlpha"/>
<feOffset dy="2"/>
<feGaussianBlur stdDeviation="1.5"/>
<feComposite in2="hardAlpha" operator="arithmetic" k2="-1" k3="1"/>
<feColorMatrix type="matrix" values="0 0 0 0 0.120729 0 0 0 0 0.195462 0 0 0 0 0.2375 0 0 0 0.2 0"/>
<feBlend mode="normal" in2="shape" result="effect1_innerShadow"/>
</filter>
<filter id="filter11_i" x="130" y="70" width="9" height="22" filterUnits="userSpaceOnUse" color-interpolation-filters="sRGB">
<feFlood flood-opacity="0" result="BackgroundImageFix"/>
<feBlend mode="normal" in="SourceGraphic" in2="BackgroundImageFix" result="shape"/>
<feColorMatrix in="SourceAlpha" type="matrix" values="0 0 0 0 0 0 0 0 0 0 0 0 0 0 0 0 0 0 127 0" result="hardAlpha"/>
<feOffset dy="2"/>
<feGaussianBlur stdDeviation="1.5"/>
<feComposite in2="hardAlpha" operator="arithmetic" k2="-1" k3="1"/>
<feColorMatrix type="matrix" values="0 0 0 0 0.120729 0 0 0 0 0.195462 0 0 0 0 0.2375 0 0 0 0.2 0"/>
<feBlend mode="normal" in2="shape" result="effect1_innerShadow"/>
</filter>
<filter id="filter12_i" x="114" y="70" width="9" height="22" filterUnits="userSpaceOnUse" color-interpolation-filters="sRGB">
<feFlood flood-opacity="0" result="BackgroundImageFix"/>
<feBlend mode="normal" in="SourceGraphic" in2="BackgroundImageFix" result="shape"/>
<feColorMatrix in="SourceAlpha" type="matrix" values="0 0 0 0 0 0 0 0 0 0 0 0 0 0 0 0 0 0 127 0" result="hardAlpha"/>
<feOffset dy="2"/>
<feGaussianBlur stdDeviation="1.5"/>
<feComposite in2="hardAlpha" operator="arithmetic" k2="-1" k3="1"/>
<feColorMatrix type="matrix" values="0 0 0 0 0.120729 0 0 0 0 0.195462 0 0 0 0 0.2375 0 0 0 0.2 0"/>
<feBlend mode="normal" in2="shape" result="effect1_innerShadow"/>
</filter>
<filter id="filter13_i" x="114" y="97" width="9" height="22" filterUnits="userSpaceOnUse" color-interpolation-filters="sRGB">
<feFlood flood-opacity="0" result="BackgroundImageFix"/>
<feBlend mode="normal" in="SourceGraphic" in2="BackgroundImageFix" result="shape"/>
<feColorMatrix in="SourceAlpha" type="matrix" values="0 0 0 0 0 0 0 0 0 0 0 0 0 0 0 0 0 0 127 0" result="hardAlpha"/>
<feOffset dy="2"/>
<feGaussianBlur stdDeviation="1.5"/>
<feComposite in2="hardAlpha" operator="arithmetic" k2="-1" k3="1"/>
<feColorMatrix type="matrix" values="0 0 0 0 0.120729 0 0 0 0 0.195462 0 0 0 0 0.2375 0 0 0 0.2 0"/>
<feBlend mode="normal" in2="shape" result="effect1_innerShadow"/>
</filter>
<filter id="filter14_i" x="130" y="97" width="9" height="22" filterUnits="userSpaceOnUse" color-interpolation-filters="sRGB">
<feFlood flood-opacity="0" result="BackgroundImageFix"/>
<feBlend mode="normal" in="SourceGraphic" in2="BackgroundImageFix" result="shape"/>
<feColorMatrix in="SourceAlpha" type="matrix" values="0 0 0 0 0 0 0 0 0 0 0 0 0 0 0 0 0 0 127 0" result="hardAlpha"/>
<feOffset dy="2"/>
<feGaussianBlur stdDeviation="1.5"/>
<feComposite in2="hardAlpha" operator="arithmetic" k2="-1" k3="1"/>
<feColorMatrix type="matrix" values="0 0 0 0 0.120729 0 0 0 0 0.195462 0 0 0 0 0.2375 0 0 0 0.2 0"/>
<feBlend mode="normal" in2="shape" result="effect1_innerShadow"/>
</filter>
<filter id="filter15_i" x="93" y="74" width="9" height="22" filterUnits="userSpaceOnUse" color-interpolation-filters="sRGB">
<feFlood flood-opacity="0" result="BackgroundImageFix"/>
<feBlend mode="normal" in="SourceGraphic" in2="BackgroundImageFix" result="shape"/>
<feColorMatrix in="SourceAlpha" type="matrix" values="0 0 0 0 0 0 0 0 0 0 0 0 0 0 0 0 0 0 127 0" result="hardAlpha"/>
<feOffset dy="2"/>
<feGaussianBlur stdDeviation="1.5"/>
<feComposite in2="hardAlpha" operator="arithmetic" k2="-1" k3="1"/>
<feColorMatrix type="matrix" values="0 0 0 0 0.120729 0 0 0 0 0.195462 0 0 0 0 0.2375 0 0 0 0.2 0"/>
<feBlend mode="normal" in2="shape" result="effect1_innerShadow"/>
</filter>
<clipPath id="clip0">
<rect width="136" height="136" fill="white"/>
</clipPath>
</defs>
</svg>
